<svg width="280" height="140" viewBox="0 0 280 140" fill="none" xmlns="http://www.w3.org/2000/svg">
<path d="M149.707 63.5934C125.888 32.7833 100.545 0 63.3267 0C26.0283 0 0 28.6417 0 70C0 111.358 26.0283 140 63.3267 140C86.3605 140 103.262 127.885 119.079 112.558C122.324 109.414 122.567 104.318 119.751 100.785L116.857 97.1528C113.375 92.7839 106.817 92.6727 102.907 96.6627C91.5589 108.244 79.2883 116.667 63.3267 116.667C38.6633 116.667 22.7383 98.2567 22.7383 70C22.7383 41.7433 38.675 23.3333 63.3267 23.3333C89.3179 23.3333 109.286 49.149 130.437 76.493C154.249 107.278 179.56 140 216.65 140C253.96 140 280 111.358 280 70C280 60.4543 278.613 51.5861 276.02 43.5911L256.86 62.4345C257.126 64.868 257.262 67.3921 257.262 70C257.262 98.2567 241.325 116.667 216.662 116.667C190.736 116.667 170.821 90.9053 149.707 63.5934Z" fill="black"/>
<path d="M249.95 41.1652L267.226 25.6717C256.045 9.58488 238.233 0 216.65 0C193.593 0 176.697 12.1275 160.88 27.4668C157.639 30.6106 157.395 35.7034 160.208 39.2357L163.107 42.8748C166.588 47.2465 173.149 47.3578 177.059 43.3645C188.416 31.7661 200.689 23.3333 216.662 23.3333C231.372 23.3333 242.979 29.883 249.95 41.1652Z" fill="black"/>
<path d="M249.95 41.1652L219.042 68.8835L203.371 51.8043C200.063 48.199 194.473 47.9185 190.821 51.1745L186.871 54.6961C183.174 57.9922 182.857 63.6645 186.164 67.3519L216.952 101.683L256.86 62.4345C255.964 54.2283 253.588 47.0524 249.95 41.1652Z" fill="black"/>
</svg>
