<svg width="280" height="140" fill="none" xmlns="http://www.w3.org/2000/svg"><path d="M149.707 63.593C125.888 32.783 100.545 0 63.327 0 26.028 0 0 28.642 0 70c0 41.358 26.028 70 63.327 70 23.034 0 39.935-12.115 55.752-27.442 3.245-3.144 3.488-8.24.672-11.773l-2.894-3.632c-3.482-4.37-10.04-4.48-13.95-.49-11.348 11.581-23.619 20.004-39.58 20.004-24.664 0-40.589-18.41-40.589-46.667s15.937-46.667 40.589-46.667c25.99 0 45.959 25.816 67.11 53.16C154.249 107.278 179.56 140 216.65 140c37.31 0 63.35-28.642 63.35-70 0-9.546-1.387-18.414-3.98-26.409l-19.16 18.843c.266 2.434.402 4.958.402 7.566 0 28.257-15.937 46.667-40.6 46.667-25.926 0-45.841-25.762-66.955-53.074Z" fill="#000"/><path d="m249.95 41.165 17.276-15.493C256.045 9.585 238.233 0 216.65 0c-23.057 0-39.953 12.127-55.77 27.467-3.241 3.144-3.485 8.236-.672 11.769l2.899 3.639c3.481 4.371 10.042 4.483 13.952.49 11.357-11.599 23.63-20.032 39.603-20.032 14.71 0 26.317 6.55 33.288 17.832Z" fill="#000"/><path d="m249.95 41.165-30.908 27.718-15.671-17.079a8.95 8.95 0 0 0-12.55-.63l-3.95 3.522a8.95 8.95 0 0 0-.707 12.656l30.788 34.331 39.908-39.249c-.896-8.206-3.272-15.382-6.91-21.269Z" fill="#000"/></svg>